<svg width="66" height="79" viewBox="0 0 66 79" fill="none" xmlns="http://www.w3.org/2000/svg">
<path d="M32.4566 38.0545C37.6846 38.0545 42.2116 36.1795 45.9106 32.48C49.6095 28.7811 51.4845 24.2552 51.4845 19.0267C51.4845 13.7999 49.6095 9.27345 45.91 5.57335C42.2104 1.87506 37.684 0 32.4566 0C27.228 0 22.7021 1.87506 19.0032 5.57395C15.3043 9.27284 13.4286 13.7993 13.4286 19.0267C13.4286 24.2552 15.3043 28.7817 19.0038 32.4806C22.7033 36.1789 27.2298 38.0545 32.4566 38.0545Z" fill="#03103B"/>
<path d="M65.7504 60.7468C65.6437 59.2075 65.4279 57.5283 65.1103 55.7551C64.7896 53.9687 64.3768 52.2798 63.8825 50.7363C63.372 49.1409 62.6777 47.5654 61.8194 46.0555C60.9286 44.4885 59.8823 43.1239 58.7082 42.001C57.4804 40.8263 55.9772 39.8819 54.239 39.193C52.5067 38.5077 50.5871 38.1605 48.5336 38.1605C47.7272 38.1605 46.9472 38.4914 45.441 39.472C44.514 40.0766 43.4297 40.7757 42.2195 41.549C41.1846 42.2084 39.7827 42.8262 38.0511 43.3855C36.3616 43.9322 34.6463 44.2094 32.9532 44.2094C31.2602 44.2094 29.5454 43.9322 27.8542 43.3855C26.1244 42.8268 24.7225 42.209 23.6888 41.5496C22.49 40.7836 21.4051 40.0844 20.4642 39.4714C18.9598 38.4908 18.1793 38.1599 17.3729 38.1599C15.3188 38.1599 13.3997 38.5077 11.6681 39.1936C9.93105 39.8813 8.42726 40.8257 7.19831 42.0016C6.02481 43.1251 4.97788 44.4891 4.08826 46.0555C3.23059 47.5654 2.53625 49.1403 2.02515 50.7369C1.53152 52.2804 1.11865 53.9687 0.798004 55.7551C0.48037 57.5259 0.264595 59.2057 0.157913 60.7486C0.0530396 62.2603 0 63.8291 0 65.4137C0 69.5375 1.31092 72.876 3.896 75.3381C6.44913 77.7677 9.82738 79.0002 13.9355 79.0002H51.9745C56.0827 79.0002 59.4597 77.7683 62.0135 75.3381C64.5992 72.8778 65.9101 69.5387 65.9101 65.4131C65.9095 63.8213 65.8558 62.2512 65.7504 60.7468Z" fill="#03103B"/>
</svg>
