<svg width="74" height="79" viewBox="0 0 74 79" fill="none" xmlns="http://www.w3.org/2000/svg">
<path d="M73.5583 66.6362L64.4986 47.2083C59.4961 54.4921 51.6855 59.6788 42.6441 61.2516L50.2281 77.5146C51.1977 79.5956 54.1985 79.4567 54.9794 77.3077L58.8666 66.6297L59.6677 66.2562L70.3458 70.1434C72.4885 70.9297 74.5266 68.709 73.5583 66.6362Z" fill="#03103B"/>
<path d="M36.9032 0C21.2905 0 8.58725 12.7025 8.58725 28.3159C8.58725 43.9294 21.2907 56.6319 36.9032 56.6319C52.5159 56.6319 65.2191 43.9294 65.2191 28.3159C65.2191 12.7025 52.516 0 36.9032 0ZM50.681 26.2354L45.66 31.13L46.8465 38.0431C47.2093 40.1538 44.9854 41.7395 43.1109 40.7564L36.9034 37.4934L30.6958 40.7563C28.8105 41.7463 26.5994 40.1419 26.9601 38.043L28.1467 31.1299L23.1257 26.2353C21.5997 24.7475 22.4467 22.1506 24.5522 21.8446L31.492 20.8366L34.5958 14.5485C35.535 12.6389 38.271 12.6372 39.2113 14.5485L42.3152 20.8366L49.255 21.8446C51.3602 22.1504 52.207 24.7475 50.681 26.2354Z" fill="#03103B"/>
<path d="M9.30797 47.2083L0.248274 66.6362C-0.724568 68.7188 1.3319 70.9272 3.46089 70.1429L14.1389 66.2557L14.94 66.6293L18.8272 77.3074C19.6065 79.452 22.6068 79.5998 23.5784 77.5145L31.1624 61.2514C22.1211 59.6788 14.3106 54.4923 9.30797 47.2083Z" fill="#03103B"/>
</svg>
