<svg width="79" height="79" viewBox="0 0 79 79" fill="none" xmlns="http://www.w3.org/2000/svg">
<path d="M39.5 0C17.7188 0 0 17.7188 0 39.5C0 61.2812 17.7188 79 39.5 79C61.2812 79 79 61.2812 79 39.5C79 17.7188 61.2812 0 39.5 0ZM58.2856 59.9311C57.6437 60.573 56.8011 60.896 55.9585 60.896C55.1159 60.896 54.2727 60.573 53.6314 59.9311L37.1729 43.4731C36.5539 42.8578 36.2085 42.0212 36.2085 41.146V19.75C36.2085 17.9298 37.6828 16.4585 39.5 16.4585C41.3172 16.4585 42.7915 17.9298 42.7915 19.75V39.7833L58.2856 55.2769C59.5725 56.5643 59.5725 58.6443 58.2856 59.9311Z" fill="#03103B"/>
</svg>
