<svg width="26" height="25" viewBox="0 0 26 25" fill="none" xmlns="http://www.w3.org/2000/svg">
<path fill-rule="evenodd" clip-rule="evenodd" d="M5.71925 10.8349C7.70087 14.7293 10.8935 17.9082 14.7879 19.9036L17.8154 16.8761C18.187 16.5045 18.7374 16.3807 19.219 16.5458C20.7603 17.055 22.4254 17.3302 24.1318 17.3302C24.8887 17.3302 25.5079 17.9495 25.5079 18.7063V23.509C25.5079 24.2659 24.8887 24.8851 24.1318 24.8851C11.21 24.8851 0.737671 14.4128 0.737671 1.49099C0.737671 0.734125 1.35693 0.114868 2.1138 0.114868H6.93024C7.68711 0.114868 8.30637 0.734125 8.30637 1.49099C8.30637 3.21115 8.58159 4.8625 9.09076 6.40377C9.24213 6.88541 9.13204 7.4221 8.74673 7.80741L5.71925 10.8349Z" fill="#254DA3"/>
<path fill-rule="evenodd" clip-rule="evenodd" d="M16.0589 1.29439C21.1584 1.91251 25.2019 5.95602 25.82 11.0555L23.4899 11.4439C23.04 7.3363 19.7781 4.07439 15.6705 3.62449L16.0589 1.29439V1.29439Z" fill="#254DA3"/>
<path fill-rule="evenodd" clip-rule="evenodd" d="M15.2817 5.9566C18.3975 6.23528 20.879 8.7168 21.1577 11.8326L18.8201 12.2222C18.7209 10.098 17.0164 8.39338 14.8922 8.29418L15.2817 5.9566V5.9566Z" fill="#254DA3"/>
</svg>
