<svg width="18" height="19" viewBox="0 0 18 19" fill="none" xmlns="http://www.w3.org/2000/svg">
<path d="M9 0.270996C7.21997 0.270996 5.47991 0.798837 3.99987 1.78777C2.51983 2.7767 1.36628 4.18231 0.685088 5.82684C0.00389951 7.47138 -0.17433 9.28098 0.172936 11.0268C0.520203 12.7726 1.37737 14.3763 2.63604 15.635C3.89471 16.8936 5.49836 17.7508 7.24419 18.0981C8.99002 18.4453 10.7996 18.2671 12.4442 17.5859C14.0887 16.9047 15.4943 15.7512 16.4832 14.2711C17.4722 12.7911 18 11.051 18 9.27099C17.9972 6.88491 17.0481 4.59737 15.3608 2.91015C13.6736 1.22294 11.3861 0.273818 9 0.270996ZM12.1073 10.4632H8.48176C8.37046 10.4621 8.26137 10.4321 8.16524 10.376C8.06912 10.3199 7.9893 10.2397 7.93365 10.1433L5.58768 5.95251C5.54665 5.87913 5.52048 5.79839 5.51065 5.7149C5.50082 5.6314 5.50754 5.54679 5.53041 5.46589C5.55328 5.38499 5.59187 5.30939 5.64396 5.2434C5.69605 5.17742 5.76063 5.12233 5.83401 5.0813C5.90739 5.04027 5.98813 5.0141 6.07162 5.00427C6.15512 4.99444 6.23973 5.00116 6.32063 5.02403C6.40153 5.04691 6.47713 5.08549 6.54312 5.13758C6.6091 5.18967 6.66419 5.25425 6.70522 5.32763L8.86564 9.18995H12.1052C12.2749 9.18995 12.4376 9.25736 12.5576 9.37735C12.6776 9.49734 12.745 9.66007 12.745 9.82976C12.745 9.99945 12.6776 10.1622 12.5576 10.2822C12.4376 10.4022 12.2749 10.4696 12.1052 10.4696L12.1073 10.4632Z" fill="#254DA3"/>
</svg>
