<svg width="22" height="19" viewBox="0 0 22 19" fill="none" xmlns="http://www.w3.org/2000/svg">
<path fill-rule="evenodd" clip-rule="evenodd" d="M19 0.500977H3C1.34806 0.500977 0.00999965 1.84833 0.00999965 3.50098L0 15.5001C0 17.1533 1.34772 18.501 3 18.501H19C20.6523 18.501 22 17.1533 22 15.501V3.50098C22 1.84869 20.6523 0.500977 19 0.500977ZM4.48406 6.50113C4.01101 6.2161 3.85859 5.60156 4.14361 5.1285C4.42864 4.65545 5.04318 4.50303 5.51623 4.78805L10.9707 8.0745L16.6632 4.64459C17.1363 4.35956 17.7517 4.51337 18.0367 4.98642C18.3211 5.45839 18.1709 6.07285 17.6998 6.35875L11.01 10.419L11.0037 10.4294L4.48406 6.50113Z" fill="#254DA3"/>
</svg>
