<svg width="18" height="19" viewBox="0 0 18 19" fill="none" xmlns="http://www.w3.org/2000/svg">
<path fill-rule="evenodd" clip-rule="evenodd" d="M3.62 8.061C5.06 10.891 7.38 13.201 10.21 14.651L12.41 12.451C12.68 12.181 13.08 12.091 13.43 12.211C14.55 12.581 15.76 12.781 17 12.781C17.55 12.781 18 13.231 18 13.781V17.271C18 17.821 17.55 18.271 17 18.271C7.61 18.271 0 10.661 0 1.271C0 0.720996 0.45 0.270996 1 0.270996H4.5C5.05 0.270996 5.5 0.720996 5.5 1.271C5.5 2.521 5.7 3.721 6.07 4.841C6.18 5.191 6.1 5.581 5.82 5.861L3.62 8.061Z" fill="#254DA3"/>
</svg>
