<svg width="68" height="79" viewBox="0 0 68 79" fill="none" xmlns="http://www.w3.org/2000/svg">
<path d="M33.6361 24.4497C25.336 24.4497 18.5837 31.202 18.5837 39.5015C18.5837 47.8016 25.336 54.5539 33.6361 54.5539C41.9356 54.5539 48.6879 47.8016 48.6879 39.5015C48.6879 31.202 41.9356 24.4497 33.6361 24.4497ZM42.5727 36.6669L31.7894 47.4502C31.3367 47.9028 30.743 48.1295 30.15 48.1295C29.5569 48.1295 28.9638 47.9034 28.5112 47.4502L24.3903 43.3294C23.4851 42.4247 23.4851 40.9571 24.3903 40.0518C25.295 39.1465 26.7627 39.1465 27.668 40.0518L30.15 42.5338L39.2951 33.3893C40.1998 32.484 41.6674 32.484 42.5727 33.3893C43.478 34.294 43.478 35.7616 42.5727 36.6669Z" fill="#03103B"/>
<path d="M67.1943 21.4347L67.1918 21.3732C67.1575 20.6144 67.1346 19.8116 67.1207 18.9183C67.0562 14.5625 63.5936 10.9594 59.2371 10.7159C50.1541 10.209 43.1276 7.24726 37.1239 1.39545L37.0727 1.34663C35.1145 -0.448876 32.1605 -0.448876 30.2017 1.34663L30.1505 1.39545C24.1468 7.24726 17.1202 10.209 8.03725 10.7165C3.68139 10.9594 0.218157 14.5625 0.153666 18.9189C0.140406 19.8061 0.1169 20.609 0.0825446 21.3732L0.0789283 21.5161C-0.0976687 30.7781 -0.317059 42.3051 3.53915 52.7677C5.65952 58.5213 8.87081 63.5227 13.0832 67.6338C17.8809 72.3158 24.1648 76.0327 31.7603 78.6811C32.0074 78.7673 32.2642 78.8372 32.5258 78.8896C32.8946 78.9632 33.2659 78.9999 33.6372 78.9999C34.0085 78.9999 34.3803 78.9632 34.7486 78.8896C35.0102 78.8372 35.2688 78.7667 35.5171 78.6799C43.1035 76.0267 49.3809 72.3079 54.1743 67.6266C58.3849 63.5142 61.5962 58.5117 63.7184 52.7569C67.589 42.2629 67.3702 30.7142 67.1943 21.4347ZM33.636 59.1891C22.7798 59.1891 13.9481 50.3574 13.9481 39.5012C13.9481 28.645 22.7798 19.8134 33.636 19.8134C44.4916 19.8134 53.3238 28.645 53.3238 39.5012C53.3238 50.3574 44.4916 59.1891 33.636 59.1891Z" fill="#03103B"/>
</svg>
