<svg width="55" height="55" fill="none" xmlns="http://www.w3.org/2000/svg"><path d="M41.414 18.632L33.85 9.07a8.143 8.143 0 00-5.195-2.989V1.15c0-.633-.517-1.15-1.15-1.15-.631 0-1.149.517-1.149 1.15v4.93a7.992 7.992 0 00-5.184 2.989l-7.586 9.575a4.79 4.79 0 00-1.023 2.942V50.31A4.71 4.71 0 0017.287 55H37.69a4.71 4.71 0 004.747-4.667V21.586a4.847 4.847 0 00-1.023-2.954zm-13.908-1.345a3.34 3.34 0 013.345 3.345 3.34 3.34 0 01-3.345 3.345 3.34 3.34 0 01-3.345-3.345 3.348 3.348 0 013.345-3.345zM40.149 50.31c0 1.345-1.103 2.39-2.448 2.39h-20.39c-1.345 0-2.449-1.045-2.449-2.39V21.586c0-.552.184-1.092.529-1.517l7.574-9.575a5.764 5.764 0 013.391-2.08v6.69a5.643 5.643 0 00-4.379 6.678 5.643 5.643 0 006.678 4.379 5.643 5.643 0 004.38-6.678 5.653 5.653 0 00-4.38-4.38v-6.69a5.731 5.731 0 013.38 2.08l7.586 9.564c.344.437.528.977.528 1.53V50.31z" fill="#33A3B7"/><path d="M31.172 41.92a3.85 3.85 0 00-3.666-2.69 1.54 1.54 0 111.54-1.54c0 .632.517 1.149 1.15 1.149.632 0 1.149-.517 1.149-1.15a3.85 3.85 0 00-2.69-3.666v-.506c0-.632-.517-1.15-1.15-1.15-.631 0-1.149.518-1.149 1.15v.506a3.846 3.846 0 00-2.517 4.816 3.85 3.85 0 003.667 2.69 1.54 1.54 0 11-1.54 1.54c0-.632-.518-1.15-1.15-1.15-.632 0-1.15.518-1.15 1.15a3.85 3.85 0 002.69 3.666v.575c0 .632.518 1.15 1.15 1.15.632 0 1.15-.518 1.15-1.15v-.575a3.846 3.846 0 002.516-4.816z" fill="#33A3B7"/></svg>