<svg width="55" height="55" fill="none" xmlns="http://www.w3.org/2000/svg"><g clip-path="url(#clip0)" fill="#33A3B7"><path d="M40.084 2.162L8.347.04a1.882 1.882 0 00-2 1.75l-.249 3.713H1.88A1.88 1.88 0 000 7.382v45.704c0 1.037.843 1.88 1.88 1.88h24.292c.21 0 .42-.086.569-.235l3.667-3.65a.81.81 0 00.114.016l6.261.419c1 .066 1.934-.747 2.001-1.75l3.05-45.603a1.896 1.896 0 00-1.75-2zM26.978 52.21v-5.596c0-.148.12-.27.269-.27h5.575l-5.844 5.866zm10.199-2.552c-.027.162-.122.246-.286.25l-4.972-.333 3.411-3.395a.805.805 0 00.238-.571V7.382c0-1.037-.844-1.88-1.88-1.88h-8.379c-1.041 0-1.041 1.611 0 1.611h8.379c.148 0 .268.12.268.269v37.352h-6.71c-1.036 0-1.88.843-1.88 1.88v6.74H1.88a.269.269 0 01-.269-.268V7.382a.27.27 0 01.269-.269h19.139c1.042 0 1.042-1.611 0-1.611H7.713l.24-3.605c.027-.162.122-.245.287-.25L39.976 3.77c.163.026.246.121.25.286l-3.05 45.602z"/><path d="M28.77 25.464H6.797a.806.806 0 100 1.611H28.77a.806.806 0 100-1.611zm0 5.616H6.797a.806.806 0 100 1.612H28.77a.806.806 0 100-1.611zM5.991 20.653c0 .445.361.806.806.806H28.77a.806.806 0 100-1.612H6.797a.806.806 0 00-.806.806zm3.871-5.616c0 .445.36.805.806.805H24.9a.806.806 0 100-1.611H10.668a.806.806 0 00-.806.806zM20.92 47.135a3936.779 3936.779 0 01-5.807.011c-.883 0-1.477-.176-1.675-1.147-.167-.82-1.328-.71-1.554 0-.557 1.755-1.48 1.067-1.996-.113-.515-1.178-.647-2.496-.872-3.75-.166-.92-1.558-.662-1.583.215-.032 1.155-.14 2.292-.433 3.412-.302 1.155-.755 2.266-1.205 3.37-.392.963 1.167 1.377 1.554.428.398-.978.797-1.962 1.095-2.977.552 1.328 1.694 2.83 3.322 1.945.303-.165.585-.399.834-.672.846.978 2.106.901 3.285.9 1.679-.002 3.357-.006 5.036-.01 1.037-.003 1.039-1.614 0-1.612zm33.428-20.662c-.419-.417-.994-.63-1.578-.646l-.61.003v-1.152c0-.7-.416-1.442-1.013-1.81v-1.623c0-3.337-5.196-3.323-5.196.016v1.622a2.13 2.13 0 00-1.016 1.81v1.18c-2.681.183-2.689 4.27.003 4.43.018 3.606.017 7.153-.003 10.82-.005 1.012 1.606 1.071 1.612.009.02-3.67.02-7.22.003-10.83l3.997-.02s-.005 11.907-.005 17.271c0 2.615-3.998 2.632-3.998-.027l.001-1.47c.063-1.039-1.545-1.136-1.608-.096v1.379c0 1.181.365 2.182 1.073 2.886a6.738 6.738 0 001.973 4.507c.344.341.821.237 1.154-.02a6.644 6.644 0 001.952-4.556c.532-.53 1.064-1.063 1.064-2.89l.001-7.342c1.393.397 2.846-.681 2.846-2.142v-9.74a2.2 2.2 0 00-.652-1.57zm-7.801-.615v-1.165c0-.238.164-.438.384-.498l3.225-.015a.51.51 0 01.393.498v1.16l-4.002.02zm2.006-5.586c.494 0 .983.485.983.973v1.307l-1.974.01V21.26c0-.543.444-.986.99-.99zm-.002 32.645a5.14 5.14 0 01-.796-1.762 3.548 3.548 0 001.597-.02 5.023 5.023 0 01-.8 1.782zm4.838-15.135c0 .763-1.23.823-1.23.014 0 0 0-7.624.002-8.323a.812.812 0 00-.812-.807l-6.272.031c-.778 0-.76-1.217.008-1.22l7.693-.039c.372.032.575.233.61.604v9.74z"/></g><defs><clipPath id="clip0"><path fill="#fff" d="M0 0h55v55H0z"/></clipPath></defs></svg>