<svg width="55" height="55" fill="none" xmlns="http://www.w3.org/2000/svg"><g clip-path="url(#clip0)" fill="#33A3B7"><path d="M24.93 40.718a.859.859 0 110-1.718l5.154-.001a.86.86 0 010 1.718H24.93zm12.027 12.224a.859.859 0 01-.86-.86l.002-2.771a.859.859 0 111.718 0v2.772a.86.86 0 01-.86.86zM.86 47.59a.858.858 0 01-.86-.859C0 42.467 3.469 39 7.732 39a.858.858 0 110 1.718 6.022 6.022 0 00-6.014 6.014.86.86 0 01-.859.86z"/><path d="M12.887 40.718H7.732a.859.859 0 110-1.72l5.155.002a.859.859 0 110 1.718zM.86 52.942a.859.859 0 01-.86-.86v-5.35a.859.859 0 111.718 0l.001 5.35a.86.86 0 01-.859.86z"/><path d="M12.887 40.718a.858.858 0 01-.859-.86v-4.923a.858.858 0 111.719 0v4.924a.86.86 0 01-.86.859zm12.029-.002a.858.858 0 01-.86-.859v-4.922a.858.858 0 111.719 0v4.922c0 .476-.384.86-.86.86z"/><path d="M18.901 37.28c-7.579 0-13.746-6.166-13.746-13.746a.858.858 0 111.718 0c0 6.633 5.396 12.028 12.028 12.028 6.633 0 12.029-5.395 12.029-12.028a.858.858 0 111.718 0c0 7.58-6.167 13.747-13.747 13.747z"/><path d="M6.014 24.393a.858.858 0 01-.859-.86v-9.45a.858.858 0 111.718 0v9.45a.86.86 0 01-.859.86zm25.775 0a.858.858 0 01-.86-.859v-10.31a.858.858 0 111.72 0v10.31a.86.86 0 01-.86.86z"/><path d="M31.789 14.084a.858.858 0 01-.86-.86 5.16 5.16 0 00-5.154-5.154.858.858 0 110-1.718 6.881 6.881 0 016.873 6.873.86.86 0 01-.86.859z"/><path d="M25.775 8.07a.858.858 0 01-.86-.86V2.914a.858.858 0 111.719 0v4.298a.86.86 0 01-.86.859z"/><path d="M25.775 3.772h-8.592a.858.858 0 110-1.718h8.592a.858.858 0 110 1.718z"/><path d="M6.014 14.941a.858.858 0 01-.859-.859c0-6.632 5.395-12.028 12.028-12.028a.858.858 0 110 1.718c-5.685 0-10.31 4.625-10.31 10.31a.86.86 0 01-.859.86zm25.775 4.296a.855.855 0 01-.608-.252l-3.436-3.436a.858.858 0 111.215-1.215l3.436 3.437a.858.858 0 01-.607 1.466z"/><path d="M18.901 18.378c-5.332 0-9.709-2.59-9.893-2.7a.86.86 0 01.884-1.475c.04.026 4.167 2.456 9.009 2.456 4.84 0 8.968-2.43 9.009-2.455a.86.86 0 01.883 1.474c-.182.11-4.56 2.7-9.892 2.7z"/><path d="M6.014 19.237a.858.858 0 01-.607-1.467l3.436-3.436a.859.859 0 111.215 1.215l-3.436 3.436a.856.856 0 01-.608.252zm9.45 23.197a.862.862 0 01-.476-.144l-2.578-1.716a.859.859 0 11.954-1.43l2.578 1.717a.86.86 0 01-.478 1.574z"/><path d="M15.466 42.435a.86.86 0 01-.386-1.629l3.436-1.718a.86.86 0 11.769 1.537l-3.436 1.719a.844.844 0 01-.383.09zm6.873-.001a.86.86 0 01-.478-1.574l2.578-1.716a.86.86 0 11.954 1.43l-2.578 1.716a.86.86 0 01-.476.145z"/><path d="M22.337 42.434a.856.856 0 01-.383-.09l-3.436-1.718a.86.86 0 11.769-1.537l3.436 1.718a.86.86 0 01-.386 1.627zm-3.41 3.437a.862.862 0 01-.863-.859c0-.475.38-.859.854-.859h.01a.859.859 0 110 1.718zm0 4.296a.862.862 0 01-.863-.86c0-.474.38-.858.854-.858h.01a.859.859 0 110 1.718zm35.213.005H30.07a.858.858 0 01-.86-.86v-14.61a.86.86 0 01.86-.859h24.07a.86.86 0 01.86.86v14.61a.86.86 0 01-.86.859zm-23.212-1.719h22.354V35.561H30.928v12.892z"/><path d="M40.394 52.942a.858.858 0 01-.859-.859v-2.77a.858.858 0 111.719 0v2.77a.858.858 0 01-.86.86zm3.434 0a.859.859 0 01-.859-.859l.001-2.771a.859.859 0 111.718 0v2.771a.86.86 0 01-.86.86zm-3.433-17.381a.858.858 0 01-.859-.859v-2.58a.858.858 0 111.718 0v2.58a.86.86 0 01-.859.86z"/><path d="M44.692 32.981h-5.157a.858.858 0 110-1.718h5.157a.859.859 0 110 1.718z"/><path d="M43.832 35.561a.858.858 0 01-.86-.859v-2.58a.858.858 0 111.719 0v2.58a.86.86 0 01-.86.86zm-1.72 7.732a.855.855 0 01-.608-.252l-.859-.859a.858.858 0 111.215-1.215l.86.86a.859.859 0 01-.608 1.466z"/><path d="M42.112 43.293a.858.858 0 01-.608-1.467l3.437-3.436a.859.859 0 111.215 1.215l-3.437 3.436a.856.856 0 01-.607.252zm.86-4.297h-4.297a.858.858 0 110-1.718h4.297a.859.859 0 110 1.718z"/><path d="M38.675 45.871a.858.858 0 01-.859-.86v-6.874a.858.858 0 111.718 0v6.875a.86.86 0 01-.859.86z"/><path d="M45.548 45.871h-6.873a.858.858 0 110-1.718h6.873a.859.859 0 110 1.718z"/><path d="M45.55 45.871a.858.858 0 01-.86-.859v-2.577a.858.858 0 111.718 0v2.577a.86.86 0 01-.859.86z"/></g><defs><clipPath id="clip0"><path fill="#fff" d="M0 0h55v55H0z"/></clipPath></defs></svg>