<svg width="55" height="55" fill="none" xmlns="http://www.w3.org/2000/svg"><path d="M48.377 12.283l1.215 1.215 3.438-3.437a.86.86 0 000-1.216l-3.438-3.437-1.215 1.215 1.97 1.97h-9.956v1.72h9.956l-1.97 1.97zm-5.157 8.09l1.216-1.215-1.97-1.97h9.956v-1.72h-9.957l1.97-1.97-1.215-1.215-3.437 3.438a.86.86 0 000 1.215l3.438 3.437z" fill="#33A3B7"/><path d="M52.276 26.787a3.42 3.42 0 00-4.65-.18 3.408 3.408 0 00-2.938-1.685 3.06 3.06 0 00-1.126.197 3.29 3.29 0 00-1.083.637 3.437 3.437 0 00-2.948-1.694 3.397 3.397 0 00-1.718.473V10.312a3.438 3.438 0 00-3.438-3.437 3.397 3.397 0 00-1.719.473V4.297a2.586 2.586 0 00-2.578-2.578H9.453a2.586 2.586 0 00-2.578 2.578v17.187h-.86a4.297 4.297 0 00-4.296 4.297v3.515L3.437 47.31v5.113a.86.86 0 00.86.86h18.906a.86.86 0 00.86-.86V47.54l3.196-4.572h1.848l.971 2.724v6.729a.86.86 0 00.86.86h17.187a.86.86 0 00.86-.86v-6.729l3.944-11.052a6.015 6.015 0 00.352-2.02v-3.4a3.437 3.437 0 00-1.005-2.432zM22.344 51.563H5.156v-3.438h17.188v3.438zm.412-5.157H5.08L3.438 29.22v-3.44a2.586 2.586 0 012.578-2.578h6.015a2.578 2.578 0 110 5.156H7.734a.86.86 0 00-.859.86V40.39a2.586 2.586 0 002.578 2.578h15.71l-2.407 3.437zM9.453 41.25a.86.86 0 01-.86-.86v-2.578h15.47v-1.718H8.592v-6.016h3.438a4.297 4.297 0 100-8.594H8.594V4.297a.86.86 0 01.86-.86h20.624a.86.86 0 01.86.86v17.669a3.375 3.375 0 00-1.728-.482 3.437 3.437 0 00-3.429 3.43v7.708c.002.691.121 1.377.353 2.028l2.354 6.6H9.453zm24.922 10.313h-2.578v-5.157h2.578v5.157zm4.297 0h-2.578v-5.157h2.578v5.157zm4.297 0H40.39v-5.157h2.578v5.157zm4.297 0h-2.578v-5.157h2.578v5.157zm4.297-18.941a4.36 4.36 0 01-.25 1.444l-3.79 10.621H31.54l-3.79-10.613a4.448 4.448 0 01-.249-1.452v-7.709a1.719 1.719 0 113.438.009v6.875h1.718V10.312a1.732 1.732 0 011.719-1.718 1.724 1.724 0 011.719 1.719v21.484h1.718V27.5a1.732 1.732 0 011.72-1.719A1.724 1.724 0 0141.25 27.5v4.297h1.719v-3.438a1.704 1.704 0 01.507-1.211c.181-.192.41-.334.662-.413.176-.063.362-.095.55-.094a1.724 1.724 0 011.718 1.718v4.297h1.719V29.22a1.724 1.724 0 011.719-1.719 1.732 1.732 0 011.718 1.719v3.403z" fill="#33A3B7"/><path d="M19.766 5.156a8.593 8.593 0 108.593 8.594 8.608 8.608 0 00-8.593-8.594zm0 15.469a6.875 6.875 0 116.875-6.875 6.884 6.884 0 01-6.875 6.875z" fill="#33A3B7"/><path d="M22.344 15.469a2.587 2.587 0 01-1.719 2.423v1.014h-1.719v-1.014a2.587 2.587 0 01-1.718-2.423h1.718a.86.86 0 10.86-.86 2.578 2.578 0 01-.86-5.001V8.594h1.719v1.014a2.586 2.586 0 011.719 2.423h-1.719a.86.86 0 10-.86.86 2.586 2.586 0 012.579 2.578z" fill="#33A3B7"/></svg>