<svg width="24" height="24" viewBox="0 0 24 24" fill="none" xmlns="http://www.w3.org/2000/svg">
<path fill-rule="evenodd" clip-rule="evenodd" d="M12 24C18.6274 24 24 18.6274 24 12C24 5.37258 18.6274 0 12 0C5.37258 0 0 5.37258 0 12C0 18.6274 5.37258 24 12 24ZM14.8935 15.653L15.3168 15.0181C15.6319 14.5454 16.2706 14.4177 16.7432 14.7328L18.5418 15.9319C18.9544 16.2069 19.1121 16.7372 18.9167 17.1929L18.6849 17.7339C18.5088 18.1448 18.1928 18.4799 17.7929 18.6799C17.4588 18.8469 17.107 18.9764 16.734 18.9939C15.5582 19.0492 12.6616 18.7914 9.43511 15.5649C6.20863 12.3384 5.95082 9.44177 6.0061 8.26603C6.02364 7.89295 6.1531 7.54116 6.32013 7.2071C6.52006 6.80724 6.85525 6.4912 7.26615 6.31509L7.80705 6.08328C8.26282 5.88795 8.79306 6.04558 9.06811 6.45815L10.2672 8.25676C10.5823 8.72944 10.4546 9.36808 9.9819 9.6832L9.34702 10.1065C9.2203 10.1909 9.11217 10.3027 9.07326 10.4499C8.94582 10.9322 8.88828 12.2127 10.8378 14.1622C12.7873 16.1117 14.0678 16.0542 14.5501 15.9267C14.6973 15.8878 14.8091 15.7797 14.8935 15.653Z" fill="white"/>
</svg>
